<svg id="Слой_1" data-name="Слой 1" xmlns="http://www.w3.org/2000/svg" viewBox="0 0 200 200"><defs><style>.cls-1{fill:#ed1c24;}</style></defs><path class="cls-1" d="M188.26,19.14C176.6,6.56,152.9-3.71,131.09,2c-17.84,4.64-27.35,18.13-30.95,24.26-3.43-5.94-13-19.88-31.23-24.61C47.1-4.07,23.4,6.21,11.74,18.79-19,52,17,120,47.73,156.19c17.35,20.42,38,34.64,52.41,43.81,14.41-9.17,34.78-23,52.13-43.45C183,120.36,219,52.38,188.26,19.14ZM146.22,150c-15.35,18.05-33.36,30.31-46.1,38.42-12.74-8.11-31-20.68-46.34-38.74-27.19-32-59-92.1-31.81-121.49C32.27,17.07,53.23,8,72.51,13c16.11,4.19,24.59,23.54,27.61,28.79,3.19-5.42,11.59-24.37,27.37-28.47,19.28-5,40.24,4.07,50.54,15.2C205.25,57.89,173.41,118,146.22,150Z"/></svg>